<svg width="153" height="153" viewBox="0 0 153 153" fill="none" xmlns="http://www.w3.org/2000/svg">
<circle cx="51.51" cy="51.51" r="51.51" transform="matrix(-1 0 0 1 127.5 25.5)" fill="#DA3939"/>
<path opacity="0.5" d="M75.9912 21.9C45.555 21.9002 20.8818 46.5741 20.8818 77.0104C20.882 107.447 45.5551 132.12 75.9912 132.12C106.428 132.12 131.101 107.447 131.102 77.0104C131.102 46.574 106.428 21.9 75.9912 21.9Z" stroke="#DA3939" stroke-width="3"/>
<ellipse cx="52.1405" cy="19.482" rx="6.03116" ry="6.03116" fill="#DA3939"/>
<circle cx="30.8022" cy="16.6984" r="3.24755" fill="#DA3939"/>
<ellipse cx="24.3061" cy="41.7509" rx="3.24755" ry="3.24755" fill="#DA3939"/>
<circle cx="11.78" cy="74.6903" r="4.63935" fill="#DA3939"/>
<ellipse cx="14.0991" cy="115.981" rx="3.24755" ry="3.24755" fill="#DA3939"/>
<ellipse cx="28.4792" cy="136.858" rx="4.63936" ry="4.63936" fill="#DA3939"/>
<ellipse cx="58.1721" cy="139.641" rx="1.85574" ry="1.85574" fill="#DA3939"/>
<ellipse cx="82.7614" cy="144.745" rx="4.17542" ry="4.17542" fill="#DA3939"/>
<circle cx="103.639" cy="138.713" r="2.78362" fill="#DA3939"/>
<ellipse cx="129.156" cy="128.043" rx="4.17542" ry="4.17542" fill="#DA3939"/>
<ellipse cx="135.652" cy="108.558" rx="2.31968" ry="2.31968" fill="#DA3939"/>
<circle cx="143.999" cy="90.9281" r="2.31968" fill="#DA3939"/>
<ellipse cx="141.682" cy="56.1329" rx="4.63936" ry="4.63935" fill="#DA3939"/>
<ellipse cx="128.69" cy="50.5657" rx="2.78362" ry="2.78361" fill="#DA3939"/>
<ellipse cx="107.35" cy="25.5132" rx="2.78361" ry="2.78361" fill="#DA3939"/>
<ellipse cx="81.3696" cy="7.88359" rx="2.78362" ry="2.78361" fill="#DA3939"/>
<ellipse cx="124.979" cy="19.0181" rx="4.63936" ry="4.63935" fill="#DA3939"/>
<path d="M81.5447 77.127L90.7989 67.9131C91.5566 67.1554 91.9822 66.1278 91.9822 65.0563C91.9822 63.9848 91.5566 62.9572 90.7989 62.1996C90.0413 61.4419 89.0137 61.0163 87.9422 61.0163C86.8707 61.0163 85.8431 61.4419 85.0855 62.1996L75.8715 71.4538L66.6575 62.1996C65.8999 61.4419 64.8723 61.0163 63.8008 61.0163C62.7293 61.0163 61.7017 61.4419 60.9441 62.1996C60.1864 62.9572 59.7608 63.9848 59.7608 65.0563C59.7608 66.1278 60.1864 67.1554 60.9441 67.9131L70.1983 77.127L60.9441 86.341C60.5669 86.715 60.2676 87.16 60.0633 87.6503C59.8591 88.1407 59.7539 88.6666 59.7539 89.1977C59.7539 89.7289 59.8591 90.2548 60.0633 90.7451C60.2676 91.2354 60.5669 91.6804 60.9441 92.0544C61.3181 92.4316 61.7631 92.7309 62.2534 92.9352C62.7437 93.1394 63.2696 93.2446 63.8008 93.2446C64.332 93.2446 64.8579 93.1394 65.3482 92.9352C65.8385 92.7309 66.2835 92.4316 66.6575 92.0544L75.8715 82.8002L85.0855 92.0544C85.4595 92.4316 85.9045 92.7309 86.3948 92.9352C86.8851 93.1394 87.411 93.2446 87.9422 93.2446C88.4734 93.2446 88.9993 93.1394 89.4896 92.9352C89.9799 92.7309 90.4249 92.4316 90.7989 92.0544C91.176 91.6804 91.4754 91.2354 91.6796 90.7451C91.8839 90.2548 91.9891 89.7289 91.9891 89.1977C91.9891 88.6666 91.8839 88.1407 91.6796 87.6503C91.4754 87.16 91.176 86.715 90.7989 86.341L81.5447 77.127Z" fill="white"/>
</svg>
