<svg width="158" height="158" viewBox="0 0 158 158" fill="none" xmlns="http://www.w3.org/2000/svg">
<ellipse cx="53.1933" cy="53.1933" rx="53.1933" ry="53.1933" transform="matrix(-1 0 0 1 131.668 26.3333)" fill="#7EDA39"/>
<circle opacity="0.5" cx="58.46" cy="58.46" r="56.96" transform="matrix(-1 0 0 1 136.934 21.0667)" stroke="#7EDA39" stroke-width="3"/>
<path d="M72.598 105.333C71.0675 105.336 69.5776 104.832 68.353 103.898L68.2771 103.84L52.2906 91.3799C51.5502 90.8024 50.9288 90.0822 50.4619 89.2602C49.9949 88.4383 49.6916 87.5308 49.5692 86.5895C49.4468 85.6482 49.5078 84.6916 49.7485 83.7743C49.9893 82.857 50.4052 81.997 50.9725 81.2433C51.5397 80.4896 52.2473 79.857 53.0547 79.3817C53.8621 78.9064 54.7536 78.5976 55.6782 78.473C56.6029 78.3484 57.5426 78.4104 58.4437 78.6555C59.3448 78.9006 60.1896 79.324 60.93 79.9015L71.2849 87.9842L95.7551 55.4975C96.3226 54.744 97.0303 54.1117 97.8379 53.6367C98.6455 53.1616 99.5371 52.8532 100.462 52.7289C101.386 52.6047 102.326 52.667 103.227 52.9125C104.128 53.1579 104.973 53.5816 105.713 54.1594L105.561 54.3697L105.717 54.1625C107.21 55.3306 108.187 57.0539 108.433 58.9543C108.68 60.8547 108.176 62.7771 107.031 64.2996L78.2486 102.512C77.5829 103.392 76.7269 104.105 75.747 104.594C74.767 105.084 73.6895 105.336 72.598 105.333Z" fill="#F2F2F2"/>
<ellipse cx="53.8454" cy="20.1186" rx="6.22826" ry="6.22826" fill="#7EDA39"/>
<ellipse cx="31.8068" cy="17.2441" rx="3.35368" ry="3.35368" fill="#7EDA39"/>
<circle cx="25.0998" cy="43.1154" r="3.35368" fill="#7EDA39"/>
<ellipse cx="12.166" cy="77.1313" rx="4.79097" ry="4.79097" fill="#7EDA39"/>
<ellipse cx="14.5607" cy="119.771" rx="3.35368" ry="3.35368" fill="#7EDA39"/>
<ellipse cx="29.4121" cy="141.33" rx="4.79097" ry="4.79097" fill="#7EDA39"/>
<ellipse cx="60.0726" cy="144.205" rx="1.91639" ry="1.91639" fill="#7EDA39"/>
<ellipse cx="85.4642" cy="149.475" rx="4.31187" ry="4.31187" fill="#7EDA39"/>
<circle cx="107.027" cy="143.247" r="2.87458" fill="#7EDA39"/>
<ellipse cx="133.374" cy="132.227" rx="4.31187" ry="4.31187" fill="#7EDA39"/>
<circle cx="140.083" cy="112.105" r="2.39548" fill="#7EDA39"/>
<circle cx="148.708" cy="93.8996" r="2.39548" fill="#7EDA39"/>
<ellipse cx="146.31" cy="57.9672" rx="4.79096" ry="4.79097" fill="#7EDA39"/>
<circle cx="132.898" cy="52.2181" r="2.87458" fill="#7EDA39"/>
<circle cx="110.859" cy="26.347" r="2.87458" fill="#7EDA39"/>
<ellipse cx="84.0269" cy="8.14118" rx="2.87458" ry="2.87458" fill="#7EDA39"/>
<ellipse cx="129.064" cy="19.6396" rx="4.79097" ry="4.79097" fill="#7EDA39"/>
</svg>
